<svg width="192" height="192" viewBox="0 0 192 192" fill="none" xmlns="http://www.w3.org/2000/svg">
<g clip-path="url(#clip0)">
<path d="M178.153 0H13.8472C6.19922 0 0 6.19922 0 13.8472V178.153C0 185.801 6.19922 192 13.8472 192H178.153C185.801 192 192 185.801 192 178.153V13.8472C192 6.19922 185.801 0 178.153 0V0ZM68.1035 145.125H44.7231V74.7847H68.1035V145.125ZM56.4141 65.1797H56.2617C48.416 65.1797 43.3418 59.7788 43.3418 53.0288C43.3418 46.1265 48.5713 40.875 56.5693 40.875C64.5674 40.875 69.4893 46.1265 69.6416 53.0288C69.6416 59.7788 64.5674 65.1797 56.4141 65.1797ZM152.408 145.125H129.031V107.495C129.031 98.0376 125.646 91.5879 117.186 91.5879C110.728 91.5879 106.881 95.9385 105.19 100.138C104.572 101.641 104.421 103.742 104.421 105.844V145.125H81.0425C81.0425 145.125 81.3486 81.3838 81.0425 74.7847H104.421V84.7441C107.528 79.9512 113.087 73.1338 125.492 73.1338C140.874 73.1338 152.408 83.187 152.408 104.792V145.125Z"/>
</g>
<defs>
<clipPath id="clip0">
<rect width="192" height="192" fill="white"/>
</clipPath>
</defs>
</svg>
