<svg width="192" height="192" viewBox="0 0 192 192" fill="none" xmlns="http://www.w3.org/2000/svg">
<path d="M181.402 2.17182e-07H10.5891C4.74023 0.00351586 -0.00117166 4.74727 2.17182e-07 10.5984V181.411C0.00351586 187.26 4.74727 192.001 10.5984 192H102.563V117.75H77.625V88.6875H102.563V67.2996C102.563 42.4969 117.704 28.9969 139.829 28.9969C150.427 28.9969 159.533 29.7867 162.188 30.1395V56.0625H146.931C134.893 56.0625 132.563 61.7824 132.563 70.1777V88.6875H161.344L157.594 117.75H132.563V192H181.402C187.254 192.001 191.999 187.259 192 181.406C192 181.405 192 181.404 192 181.402V10.5891C191.998 4.74023 187.253 -0.00117166 181.402 2.17182e-07Z"/>
</svg>
