<svg width="192" height="192" viewBox="0 0 192 192" fill="none" xmlns="http://www.w3.org/2000/svg">
<path d="M186.89 0H5.12374C2.36527 0 0.1297 2.21593 0.1297 4.95016V186.724C0.1297 189.458 2.36527 191.674 5.12374 191.674H65.5486V191.631C68.2757 191.599 70.3653 190.086 70.4613 187.525C70.7091 180.869 70.5341 174.199 70.5341 167.764C65.6674 167.99 61.0213 168.599 56.4276 168.336C46.2958 167.758 38.5103 163.473 34.4725 153.639C32.0807 147.813 28.4766 142.83 22.8637 139.505C21.8155 138.884 20.8991 137.969 20.097 137.039C19.0488 135.827 19.2449 134.582 20.9011 134.25C22.5719 133.913 24.3973 133.678 26.0449 133.983C32.5161 135.187 36.991 139.21 40.4163 144.56C47.1894 155.146 57.615 158.387 69.3443 153.498C69.9983 153.225 70.8296 152.565 70.9529 151.962C71.8986 147.276 73.6654 143.003 77.2259 139.257C73.2674 138.531 69.6007 137.996 66.0048 137.169C55.65 134.794 46.3479 130.522 39.5455 122.036C33.9956 115.114 31.4577 107.011 30.2911 98.3867C28.464 84.8789 30.0994 72.2345 39.458 61.44C39.9309 60.8947 40.1872 59.7775 39.9769 59.0982C37.633 51.507 37.9911 43.9795 40.3142 36.4729C41.5333 32.5307 41.8727 32.3343 45.9312 32.8836C46.1794 32.9167 46.4208 32.9784 46.6669 33.02C54.8024 34.3542 61.8049 38.259 68.703 42.4512C69.6303 43.0151 71.0427 43.366 72.0616 43.1204C88.5372 39.1575 104.981 39.1741 121.455 43.1349C122.411 43.364 123.689 43.0377 124.603 42.5629C128.353 40.6196 131.943 38.3605 135.741 36.5181C140.16 34.3768 144.814 32.7659 149.825 32.8546C150.702 32.8711 152.058 33.7012 152.352 34.4696C155.366 42.3871 156.002 50.4555 153.6 58.6953C153.343 59.575 153.725 60.8286 154.202 61.6958C156.573 66.0078 159.883 69.9872 161.383 74.5611C165.957 88.5026 164.29 102.308 158.065 115.411C152.36 127.422 141.781 133.507 129.258 136.647C125.028 137.706 120.695 138.35 116.132 139.238C122.111 145.43 123.049 152.986 122.943 160.899C122.832 169.062 122.862 177.228 122.857 185.393C122.855 189.348 124.597 191.533 127.636 191.661C127.634 191.673 191.883 191.673 191.883 191.673V4.95016C191.882 2.21593 189.647 0 186.89 0Z"/>
</svg>
