<svg width="192" height="175" viewBox="0 0 192 175" fill="none" xmlns="http://www.w3.org/2000/svg">
<g clip-path="url(#clip0)">
<path d="M96 75C78.9581 75 65.1429 87.592 65.1429 103.125C65.1429 118.658 78.9581 131.25 96 131.25C113.042 131.25 126.857 118.658 126.857 103.125C126.836 87.5998 113.033 75.0189 96 75ZM96 112.5C90.3194 112.5 85.7143 108.303 85.7143 103.125C85.7143 97.9473 90.3194 93.75 96 93.75C101.681 93.75 106.286 97.9473 106.286 103.125C106.286 108.303 101.681 112.5 96 112.5Z"/>
<path d="M96 106.25C97.8935 106.25 99.4286 104.851 99.4286 103.125C99.4286 101.399 97.8935 100 96 100C94.1064 100 92.5714 101.399 92.5714 103.125C92.5714 104.851 94.1064 106.25 96 106.25Z"/>
<path d="M190.742 46.5625C179.232 38.1906 146.959 18.75 96 18.75C45.0411 18.75 12.768 38.1906 1.25828 46.5625C0.152555 47.3792 -0.27836 48.737 0.178278 49.9656L11.5303 77.9125C12.0555 79.4888 13.8266 80.4282 15.5897 80.0656L48.7714 73.0844C50.3314 72.756 51.4344 71.4874 51.4286 70.0281V56.0594C51.4407 53.0733 53.0005 50.2682 55.6354 48.4937C67.4525 40.9859 81.601 37.1324 96 37.5C110.397 37.1326 124.544 40.9849 136.361 48.4906C138.998 50.2654 140.559 53.0718 140.571 56.0594V70.0281C140.572 71.4827 141.674 72.7446 143.229 73.0719L176.41 80.0531C178.133 80.4141 179.874 79.5224 180.432 77.9937L191.856 49.8687C192.266 48.6627 191.824 47.3507 190.742 46.5625V46.5625Z"/>
<path d="M149.571 80.8219L141.686 79.1657C137.01 78.1959 133.697 74.3992 133.714 70.0282V56.0594C133.716 55.0526 133.185 54.1068 132.288 53.5188C121.651 46.8057 108.931 43.3815 96 43.7501C83.0675 43.3821 70.3468 46.8062 59.7086 53.5188C58.8131 54.1075 58.2835 55.0532 58.2857 56.0594V70.0282C58.3025 74.3992 54.9903 78.1959 50.3143 79.1657L42.4286 80.8219L7.39199 131.388C7.0451 131.889 6.85978 132.47 6.85713 133.063V153.125C6.85713 154.851 8.39216 156.25 10.2857 156.25H181.714C183.608 156.25 185.143 154.851 185.143 153.125V133.063C185.139 132.465 184.951 131.88 184.601 131.375L149.571 80.8219ZM96 137.5C75.171 137.5 58.2857 122.11 58.2857 103.125C58.2857 84.1403 75.171 68.7501 96 68.7501C116.829 68.7501 133.714 84.1403 133.714 103.125C133.69 122.101 116.819 137.478 96 137.5Z"/>
</g>
<defs>
<clipPath id="clip0">
<rect width="192" height="175" fill="white"/>
</clipPath>
</defs>
</svg>
